<?xml version="1.0" encoding="utf-8"?>

<!-- Uploaded to: SVG Repo, www.svgrepo.com, Generator: SVG Repo Mixer Tools -->
<svg height="800px" width="800px" version="1.1" id="Icons" xmlns="http://www.w3.org/2000/svg" xmlns:xlink="http://www.w3.org/1999/xlink" 
	 viewBox="0 0 32 32" xml:space="preserve">
<style type="text/css">
	.st0{fill:#FFFFFF;}
</style>
<g>
	<polygon points="7.1,23 8.9,23 8,21.2 	"/>
	<path d="M13,16H3c-1.1,0-2,0.9-2,2v10c0,1.1,0.9,2,2,2h10c1.1,0,2-0.9,2-2V18C15,16.9,14.1,16,13,16z M12.4,27.9
		C12.3,28,12.2,28,12,28c-0.4,0-0.7-0.2-0.9-0.6L9.9,25H6.1l-1.2,2.4c-0.2,0.5-0.8,0.7-1.3,0.4c-0.5-0.2-0.7-0.8-0.4-1.3l4-8
		c0.3-0.7,1.5-0.7,1.8,0l4,8C13.1,27,12.9,27.6,12.4,27.9z"/>
</g>
<path d="M17,1H7C5.9,1,5,1.9,5,3v10c0,1.1,0.9,2,2,2h10c1.1,0,2-0.9,2-2V3C19,1.9,18.1,1,17,1z M12,11c0.9,0,1.7-0.4,2.2-1
	c0.4-0.4,1-0.5,1.4-0.1c0.4,0.4,0.5,1,0.1,1.4c-1,1.1-2.3,1.7-3.8,1.7c-2.8,0-5-2.2-5-5s2.2-5,5-5c1.4,0,2.8,0.6,3.8,1.7
	c0.4,0.4,0.3,1-0.1,1.4c-0.4,0.4-1,0.3-1.4-0.1c-0.6-0.7-1.4-1-2.2-1c-1.7,0-3,1.3-3,3S10.3,11,12,11z"/>
<g>
	<path d="M24,24h-3v2h3c0.6,0,1-0.4,1-1S24.6,24,24,24z"/>
	<path d="M25,21c0-0.6-0.4-1-1-1h-3v2h3C24.6,22,25,21.6,25,21z"/>
	<path d="M28,16H18c-1.1,0-2,0.9-2,2v10c0,1.1,0.9,2,2,2h10c1.1,0,2-0.9,2-2V18C30,16.9,29.1,16,28,16z M27,25c0,1.7-1.3,3-3,3h-4
		c-0.6,0-1-0.4-1-1v-4v-4c0-0.6,0.4-1,1-1h4c1.7,0,3,1.3,3,3c0,0.8-0.3,1.5-0.8,2C26.7,23.5,27,24.2,27,25z"/>
</g>
</svg>