<?xml version="1.0" encoding="utf-8"?>

<!-- Uploaded to: SVG Repo, www.svgrepo.com, Generator: SVG Repo Mixer Tools -->
<svg height="800px" width="800px" version="1.1" id="Icons" xmlns="http://www.w3.org/2000/svg" xmlns:xlink="http://www.w3.org/1999/xlink" 
	 viewBox="0 0 32 32" xml:space="preserve">
<style type="text/css">
	.st0{fill:#FFFFFF;}
</style>
<path d="M27,3H11C9.3,3,8,4.8,8,7v14H7c-1.7,0-3,1.8-3,4s1.3,4,3,4h16c1.7,0,3-1.8,3-4V8h3c0.6,0,1-0.4,1-1C30,4.8,28.7,3,27,3z
	 M12,10h6c0.6,0,1,0.4,1,1s-0.4,1-1,1h-6c-0.6,0-1-0.4-1-1S11.4,10,12,10z M12,13h3c0.6,0,1,0.4,1,1s-0.4,1-1,1h-3c-0.6,0-1-0.4-1-1
	S11.4,13,12,13z M20.4,27H7c-0.4,0-1-0.8-1-2s0.6-2,1-2h13.4c-0.3,0.6-0.4,1.3-0.4,2S20.2,26.4,20.4,27z M26.1,6
	c0.2-0.6,0.6-1,0.9-1s0.6,0.4,0.9,1H26.1z"/>
</svg>